<?xml version="1.0" encoding="UTF-8" standalone="no"?>
<!-- Created with Inkscape (http://www.inkscape.org/) -->

<svg
   xmlns:dc="http://purl.org/dc/elements/1.1/"
   xmlns:cc="http://creativecommons.org/ns#"
   xmlns:rdf="http://www.w3.org/1999/02/22-rdf-syntax-ns#"
   xmlns:svg="http://www.w3.org/2000/svg"
   xmlns="http://www.w3.org/2000/svg"
   xmlns:sodipodi="http://sodipodi.sourceforge.net/DTD/sodipodi-0.dtd"
   xmlns:inkscape="http://www.inkscape.org/namespaces/inkscape"
   width="291.798mm"
   height="291.798mm"
   viewBox="0 0 291.798 291.798"
   version="1.1"
   id="svg5510"
   inkscape:version="0.92.0 r15299"
   sodipodi:docname="7.svg">
  <defs
     id="defs5504">
    <clipPath
       clipPathUnits="userSpaceOnUse"
       id="clipPath6467">
      <rect
         style="opacity:0.18800001;fill:#7fff2a;fill-opacity:1;stroke:none;stroke-width:1.95029461;stroke-linecap:round;stroke-linejoin:round;stroke-miterlimit:4;stroke-dasharray:none;stroke-dashoffset:0;stroke-opacity:1"
         id="rect6469"
         width="47.306705"
         height="42.495857"
         x="-105.03693"
         y="-16.106251" />
    </clipPath>
  </defs>
  <sodipodi:namedview
     id="base"
     pagecolor="#ffffff"
     bordercolor="#666666"
     borderopacity="1.0"
     inkscape:pageopacity="0.0"
     inkscape:pageshadow="2"
     inkscape:zoom="0.12374369"
     inkscape:cx="1373.367"
     inkscape:cy="701.90129"
     inkscape:document-units="mm"
     inkscape:current-layer="layer1"
     showgrid="false"
     showguides="true"
     inkscape:window-width="1920"
     inkscape:window-height="1017"
     inkscape:window-x="-8"
     inkscape:window-y="-8"
     inkscape:window-maximized="1" />
  <metadata
     id="metadata5507">
    <rdf:RDF>
      <cc:Work
         rdf:about="">
        <dc:format>image/svg+xml</dc:format>
        <dc:type
           rdf:resource="http://purl.org/dc/dcmitype/StillImage" />
        <dc:title />
      </cc:Work>
    </rdf:RDF>
  </metadata>
  <g
     inkscape:label="Capa 1"
     inkscape:groupmode="layer"
     id="layer1"
     transform="translate(0,-5.202)">
    <flowRoot
       xml:space="preserve"
       id="flowRoot7690"
       style="font-style:normal;font-variant:normal;font-weight:normal;font-stretch:normal;font-size:40px;line-height:25px;font-family:'Proxima Nova Alt';-inkscape-font-specification:'Proxima Nova Alt, Normal';font-variant-ligatures:normal;font-variant-caps:normal;font-variant-numeric:normal;font-feature-settings:normal;text-align:start;letter-spacing:0px;word-spacing:0px;writing-mode:lr-tb;text-anchor:start;fill:#000000;fill-opacity:1;stroke:none;stroke-width:1px;stroke-linecap:butt;stroke-linejoin:miter;stroke-opacity:1"><flowRegion
         id="flowRegion7692"><rect
           id="rect7694"
           width="1878.8838"
           height="1587.9598"
           x="-2626.3967"
           y="-2623.126" /></flowRegion><flowPara
         id="flowPara7696" /></flowRoot>    <flowRoot
       xml:space="preserve"
       id="flowRoot7698"
       style="font-style:normal;font-variant:normal;font-weight:normal;font-stretch:normal;font-size:40px;line-height:25px;font-family:'Proxima Nova Alt';-inkscape-font-specification:'Proxima Nova Alt, Normal';font-variant-ligatures:normal;font-variant-caps:normal;font-variant-numeric:normal;font-feature-settings:normal;text-align:start;letter-spacing:0px;word-spacing:0px;writing-mode:lr-tb;text-anchor:start;fill:#000000;fill-opacity:1;stroke:none;stroke-width:1px;stroke-linecap:butt;stroke-linejoin:miter;stroke-opacity:1"><flowRegion
         id="flowRegion7700"><rect
           id="rect7702"
           width="1446.5385"
           height="1636.4471"
           x="-1596.041"
           y="-2752.4255" /></flowRegion><flowPara
         id="flowPara7704" /></flowRoot>    <g
       id="g5358"
       transform="translate(446.47699,999.36899)">
      <g
         inkscape:export-filename="C:\Users\Kevin Sánchez\Desktop\da.png"
         inkscape:export-ydpi="120"
         inkscape:export-xdpi="120"
         transform="matrix(2.1212769,0,0,2.1212769,-167.71377,-1482.5747)"
         id="g6236">
        <circle
           style="opacity:1;fill:#002060;fill-opacity:1;stroke:none;stroke-width:0.27272916;stroke-linecap:round;stroke-linejoin:round;stroke-miterlimit:4;stroke-dasharray:none;stroke-dashoffset:0;stroke-opacity:1"
           id="path6202"
           cx="-67.151466"
           cy="317.16211"
           r="4.1259732" />
        <path
           inkscape:connector-curvature="0"
           style="opacity:1;fill:#002060;fill-opacity:1;stroke:none;stroke-width:5.18732262;stroke-linecap:round;stroke-linejoin:round;stroke-miterlimit:4;stroke-dasharray:none;stroke-dashoffset:0;stroke-opacity:1"
           d="m -253.80078,990.18945 a 208.53337,208.53337 0 0 0 -148.69141,62.40825 l 26.62891,26.3652 a 171.15772,171.15772 0 0 1 122.0625,-51.3984 171.15772,171.15772 0 0 1 123.91797,53.2031 l 26.33789,-26.3047 a 208.53337,208.53337 0 0 0 -150.25586,-64.27345 z m 0,66.66995 a 141.8633,141.8633 0 0 0 -101.33594,42.625 l 24.46289,24.2187 a 107.51811,107.51811 0 0 1 76.87305,-32.498 107.51811,107.51811 0 0 1 78.85351,34.5722 l 24.25977,-24.2304 a 141.8633,141.8633 0 0 0 -103.11328,-44.6875 z m 0,63.3867 a 78.476219,78.476219 0 0 0 -56.3086,23.8164 l 25.87891,25.6211 a 42.110727,42.110727 0 0 1 30.42969,-13.0723 42.110727,42.110727 0 0 1 32.53711,15.4239 l 25.75781,-25.7247 a 78.476219,78.476219 0 0 0 -58.29492,-26.0644 z"
           transform="scale(0.26458333)"
           id="circle6204" />
        <path
           inkscape:connector-curvature="0"
           style="opacity:1;fill:#0070c0;fill-opacity:1;stroke:none;stroke-width:1.00157475;stroke-linecap:round;stroke-linejoin:round;stroke-miterlimit:4;stroke-dasharray:none;stroke-dashoffset:0;stroke-opacity:1"
           d="m -126.01562,1160.0215 a 55.053312,55.053312 0 0 0 -55.05469,55.0527 55.053312,55.053312 0 0 0 55.05469,55.0547 55.053312,55.053312 0 0 0 55.052729,-55.0547 55.053312,55.053312 0 0 0 -55.052729,-55.0527 z m 0,13.5723 a 41.481884,41.481884 0 0 1 41.480464,41.4804 41.481884,41.481884 0 0 1 -41.480464,41.4824 41.481884,41.481884 0 0 1 -41.48243,-41.4824 41.481884,41.481884 0 0 1 41.48243,-41.4804 z"
           transform="scale(0.26458333)"
           id="path6225" />
        <path
           inkscape:connector-curvature="0"
           id="path6230"
           d="m -28.28125,316.08008 a 0.73257327,0.73257327 0 0 0 -0.507812,0.21484 l -4.871094,4.74414 -2.84375,-2.80273 a 0.73267297,0.73267297 0 1 0 -1.029297,1.04297 l 3.867187,3.81054 5.900391,-5.74414 a 0.73257327,0.73257327 0 0 0 -0.515625,-1.26562 z"
           style="color:#000000;font-style:normal;font-variant:normal;font-weight:normal;font-stretch:normal;font-size:medium;line-height:normal;font-family:sans-serif;font-variant-ligatures:normal;font-variant-position:normal;font-variant-caps:normal;font-variant-numeric:normal;font-variant-alternates:normal;font-feature-settings:normal;text-indent:0;text-align:start;text-decoration:none;text-decoration-line:none;text-decoration-style:solid;text-decoration-color:#000000;letter-spacing:normal;word-spacing:normal;text-transform:none;writing-mode:lr-tb;direction:ltr;text-orientation:mixed;dominant-baseline:auto;baseline-shift:baseline;text-anchor:start;white-space:normal;shape-padding:0;clip-rule:nonzero;display:inline;overflow:visible;visibility:visible;opacity:1;isolation:auto;mix-blend-mode:normal;color-interpolation:sRGB;color-interpolation-filters:linearRGB;solid-color:#000000;solid-opacity:1;vector-effect:none;fill:#0070c0;fill-opacity:1;fill-rule:evenodd;stroke:none;stroke-width:1.46500003;stroke-linecap:round;stroke-linejoin:miter;stroke-miterlimit:4;stroke-dasharray:none;stroke-dashoffset:0;stroke-opacity:1;color-rendering:auto;image-rendering:auto;shape-rendering:auto;text-rendering:auto;enable-background:accumulate" />
      </g>
    </g>
  </g>
</svg>
