<?xml version="1.0" encoding="UTF-8" standalone="no"?>
<!-- Created with Inkscape (http://www.inkscape.org/) -->

<svg
   xmlns:dc="http://purl.org/dc/elements/1.1/"
   xmlns:cc="http://creativecommons.org/ns#"
   xmlns:rdf="http://www.w3.org/1999/02/22-rdf-syntax-ns#"
   xmlns:svg="http://www.w3.org/2000/svg"
   xmlns="http://www.w3.org/2000/svg"
   xmlns:sodipodi="http://sodipodi.sourceforge.net/DTD/sodipodi-0.dtd"
   xmlns:inkscape="http://www.inkscape.org/namespaces/inkscape"
   width="291.798mm"
   height="291.798mm"
   viewBox="0 0 291.798 291.798"
   version="1.1"
   id="svg5510"
   inkscape:version="0.92.0 r15299"
   sodipodi:docname="6.svg">
  <defs
     id="defs5504">
    <clipPath
       clipPathUnits="userSpaceOnUse"
       id="clipPath6467">
      <rect
         style="opacity:0.18800001;fill:#7fff2a;fill-opacity:1;stroke:none;stroke-width:1.95029461;stroke-linecap:round;stroke-linejoin:round;stroke-miterlimit:4;stroke-dasharray:none;stroke-dashoffset:0;stroke-opacity:1"
         id="rect6469"
         width="47.306705"
         height="42.495857"
         x="-105.03693"
         y="-16.106251" />
    </clipPath>
  </defs>
  <sodipodi:namedview
     id="base"
     pagecolor="#ffffff"
     bordercolor="#666666"
     borderopacity="1.0"
     inkscape:pageopacity="0.0"
     inkscape:pageshadow="2"
     inkscape:zoom="0.12374369"
     inkscape:cx="1373.367"
     inkscape:cy="701.90129"
     inkscape:document-units="mm"
     inkscape:current-layer="layer1"
     showgrid="false"
     showguides="true"
     inkscape:window-width="1920"
     inkscape:window-height="1017"
     inkscape:window-x="-8"
     inkscape:window-y="-8"
     inkscape:window-maximized="1" />
  <metadata
     id="metadata5507">
    <rdf:RDF>
      <cc:Work
         rdf:about="">
        <dc:format>image/svg+xml</dc:format>
        <dc:type
           rdf:resource="http://purl.org/dc/dcmitype/StillImage" />
        <dc:title />
      </cc:Work>
    </rdf:RDF>
  </metadata>
  <g
     inkscape:label="Capa 1"
     inkscape:groupmode="layer"
     id="layer1"
     transform="translate(0,-5.202)">
    <flowRoot
       xml:space="preserve"
       id="flowRoot7690"
       style="font-style:normal;font-variant:normal;font-weight:normal;font-stretch:normal;font-size:40px;line-height:25px;font-family:'Proxima Nova Alt';-inkscape-font-specification:'Proxima Nova Alt, Normal';font-variant-ligatures:normal;font-variant-caps:normal;font-variant-numeric:normal;font-feature-settings:normal;text-align:start;letter-spacing:0px;word-spacing:0px;writing-mode:lr-tb;text-anchor:start;fill:#000000;fill-opacity:1;stroke:none;stroke-width:1px;stroke-linecap:butt;stroke-linejoin:miter;stroke-opacity:1"><flowRegion
         id="flowRegion7692"><rect
           id="rect7694"
           width="1878.8838"
           height="1587.9598"
           x="-2626.3967"
           y="-2623.126" /></flowRegion><flowPara
         id="flowPara7696" /></flowRoot>    <flowRoot
       xml:space="preserve"
       id="flowRoot7698"
       style="font-style:normal;font-variant:normal;font-weight:normal;font-stretch:normal;font-size:40px;line-height:25px;font-family:'Proxima Nova Alt';-inkscape-font-specification:'Proxima Nova Alt, Normal';font-variant-ligatures:normal;font-variant-caps:normal;font-variant-numeric:normal;font-feature-settings:normal;text-align:start;letter-spacing:0px;word-spacing:0px;writing-mode:lr-tb;text-anchor:start;fill:#000000;fill-opacity:1;stroke:none;stroke-width:1px;stroke-linecap:butt;stroke-linejoin:miter;stroke-opacity:1"><flowRegion
         id="flowRegion7700"><rect
           id="rect7702"
           width="1446.5385"
           height="1636.4471"
           x="-1596.041"
           y="-2752.4255" /></flowRegion><flowPara
         id="flowPara7704" /></flowRoot>    <g
       id="g5350"
       transform="translate(738.27466,999.36899)">
      <g
         inkscape:export-filename="C:\Users\Kevin Sánchez\Desktop\da.png"
         inkscape:export-ydpi="120"
         inkscape:export-xdpi="120"
         transform="matrix(1.2963553,0,0,1.2963553,-644.12633,-1416.2116)"
         id="g6267">
        <path
           style="opacity:1;fill:#002060;fill-opacity:1;stroke:none;stroke-width:2.82093644;stroke-linecap:round;stroke-linejoin:round;stroke-miterlimit:4;stroke-dasharray:none;stroke-dashoffset:0;stroke-opacity:1"
           d="m -19.308442,380.50132 c -3.923794,0 -7.08276,3.15899 -7.08276,7.08277 v 82.45492 c 0,3.92378 3.158966,7.08277 7.08276,7.08277 h 37.361027 l -0.178801,7.93595 c -0.12751,5.64671 -7.684362,5.56297 -14.2409909,6.0141 v 4.64313 H 74.969007 v -4.64313 c -6.098172,-0.28122 -14.148416,-0.87637 -14.189316,-4.97334 l -0.0894,-8.97671 h 38.458635 c 3.923784,0 7.082254,-3.15899 7.082254,-7.08277 v -82.45492 c 0,-3.92378 -3.15847,-7.08277 -7.082254,-7.08277 z m -1.979723,5.29167 H 101.12865 v 86.03712 H -21.288165 Z"
           id="rect6238"
           inkscape:connector-curvature="0" />
        <path
           style="opacity:1;fill:#0070c0;fill-opacity:1;stroke:none;stroke-width:1.46499979;stroke-linecap:round;stroke-linejoin:round;stroke-miterlimit:4;stroke-dasharray:none;stroke-dashoffset:0;stroke-opacity:1"
           d="m 19.878313,420.74589 v 5.58209 l -4.834332,-2.79104 -1.319816,2.28565 4.834332,2.79104 -4.834332,2.79105 1.319816,2.28564 4.834332,-2.79104 v 5.58209 h 2.639115 v -5.58209 l 4.834329,2.79104 1.3193,-2.28564 -4.834329,-2.79105 4.834329,-2.79104 -1.3193,-2.28565 -4.834329,2.79104 v -5.58209 z"
           id="rect6252"
           inkscape:connector-curvature="0" />
        <path
           id="path6259"
           d="m 38.486951,420.74589 v 5.58209 l -4.83433,-2.79104 -1.31981,2.28564 4.83433,2.79105 -4.83433,2.79104 1.31981,2.28565 4.83433,-2.79104 v 5.58209 h 2.63912 v -5.58209 l 4.83433,2.79104 1.3193,-2.28565 -4.83433,-2.79104 4.83433,-2.79105 -1.3193,-2.28564 -4.83433,2.79104 v -5.58209 z"
           style="opacity:1;fill:#0070c0;fill-opacity:1;stroke:none;stroke-width:1.46499979;stroke-linecap:round;stroke-linejoin:round;stroke-miterlimit:4;stroke-dasharray:none;stroke-dashoffset:0;stroke-opacity:1"
           inkscape:connector-curvature="0" />
        <path
           inkscape:connector-curvature="0"
           style="opacity:1;fill:#0070c0;fill-opacity:1;stroke:none;stroke-width:1.46499979;stroke-linecap:round;stroke-linejoin:round;stroke-miterlimit:4;stroke-dasharray:none;stroke-dashoffset:0;stroke-opacity:1"
           d="m 57.385761,420.74589 v 5.58209 l -4.83433,-2.79104 -1.31981,2.28564 4.83433,2.79105 -4.83433,2.79104 1.31981,2.28565 4.83433,-2.79104 v 5.58209 h 2.63912 v -5.58209 l 4.83433,2.79104 1.3193,-2.28565 -4.83433,-2.79104 4.83433,-2.79105 -1.3193,-2.28564 -4.83433,2.79104 v -5.58209 z"
           id="path6261" />
      </g>
    </g>
  </g>
</svg>
