<?xml version="1.0" encoding="UTF-8" standalone="no"?>
<!-- Created with Inkscape (http://www.inkscape.org/) -->

<svg
   xmlns:dc="http://purl.org/dc/elements/1.1/"
   xmlns:cc="http://creativecommons.org/ns#"
   xmlns:rdf="http://www.w3.org/1999/02/22-rdf-syntax-ns#"
   xmlns:svg="http://www.w3.org/2000/svg"
   xmlns="http://www.w3.org/2000/svg"
   xmlns:sodipodi="http://sodipodi.sourceforge.net/DTD/sodipodi-0.dtd"
   xmlns:inkscape="http://www.inkscape.org/namespaces/inkscape"
   width="291.798mm"
   height="291.798mm"
   viewBox="0 0 291.798 291.798"
   version="1.1"
   id="svg5510"
   inkscape:version="0.92.0 r15299"
   sodipodi:docname="3.svg">
  <defs
     id="defs5504">
    <clipPath
       clipPathUnits="userSpaceOnUse"
       id="clipPath6467">
      <rect
         style="opacity:0.18800001;fill:#7fff2a;fill-opacity:1;stroke:none;stroke-width:1.95029461;stroke-linecap:round;stroke-linejoin:round;stroke-miterlimit:4;stroke-dasharray:none;stroke-dashoffset:0;stroke-opacity:1"
         id="rect6469"
         width="47.306705"
         height="42.495857"
         x="-105.03693"
         y="-16.106251" />
    </clipPath>
  </defs>
  <sodipodi:namedview
     id="base"
     pagecolor="#ffffff"
     bordercolor="#666666"
     borderopacity="1.0"
     inkscape:pageopacity="0.0"
     inkscape:pageshadow="2"
     inkscape:zoom="0.12374369"
     inkscape:cx="1373.367"
     inkscape:cy="701.90129"
     inkscape:document-units="mm"
     inkscape:current-layer="layer1"
     showgrid="false"
     showguides="true"
     inkscape:window-width="1920"
     inkscape:window-height="1017"
     inkscape:window-x="-8"
     inkscape:window-y="-8"
     inkscape:window-maximized="1" />
  <metadata
     id="metadata5507">
    <rdf:RDF>
      <cc:Work
         rdf:about="">
        <dc:format>image/svg+xml</dc:format>
        <dc:type
           rdf:resource="http://purl.org/dc/dcmitype/StillImage" />
        <dc:title />
      </cc:Work>
    </rdf:RDF>
  </metadata>
  <g
     inkscape:label="Capa 1"
     inkscape:groupmode="layer"
     id="layer1"
     transform="translate(0,-5.202)">
    <flowRoot
       xml:space="preserve"
       id="flowRoot7690"
       style="font-style:normal;font-variant:normal;font-weight:normal;font-stretch:normal;font-size:40px;line-height:25px;font-family:'Proxima Nova Alt';-inkscape-font-specification:'Proxima Nova Alt, Normal';font-variant-ligatures:normal;font-variant-caps:normal;font-variant-numeric:normal;font-feature-settings:normal;text-align:start;letter-spacing:0px;word-spacing:0px;writing-mode:lr-tb;text-anchor:start;fill:#000000;fill-opacity:1;stroke:none;stroke-width:1px;stroke-linecap:butt;stroke-linejoin:miter;stroke-opacity:1"><flowRegion
         id="flowRegion7692"><rect
           id="rect7694"
           width="1878.8838"
           height="1587.9598"
           x="-2626.3967"
           y="-2623.126" /></flowRegion><flowPara
         id="flowPara7696" /></flowRoot>    <flowRoot
       xml:space="preserve"
       id="flowRoot7698"
       style="font-style:normal;font-variant:normal;font-weight:normal;font-stretch:normal;font-size:40px;line-height:25px;font-family:'Proxima Nova Alt';-inkscape-font-specification:'Proxima Nova Alt, Normal';font-variant-ligatures:normal;font-variant-caps:normal;font-variant-numeric:normal;font-feature-settings:normal;text-align:start;letter-spacing:0px;word-spacing:0px;writing-mode:lr-tb;text-anchor:start;fill:#000000;fill-opacity:1;stroke:none;stroke-width:1px;stroke-linecap:butt;stroke-linejoin:miter;stroke-opacity:1"><flowRegion
         id="flowRegion7700"><rect
           id="rect7702"
           width="1446.5385"
           height="1636.4471"
           x="-1596.041"
           y="-2752.4255" /></flowRegion><flowPara
         id="flowPara7704" /></flowRoot>    <g
       id="g5316"
       transform="translate(446.47702,1291.1666)">
      <g
         inkscape:export-filename="C:\Users\Kevin Sánchez\Desktop\da.png"
         inkscape:export-ydpi="120"
         inkscape:export-xdpi="120"
         transform="matrix(1.4383818,0,0,1.4383818,-1543.8746,-519.25246)"
         id="g7890">
        <path
           sodipodi:nodetypes="cccccccccc"
           inkscape:connector-curvature="0"
           id="path7892"
           transform="matrix(0.26458333,0,0,0.26458333,-252.4881,0)"
           d="m 4150.1309,-1525.9141 -49.3672,33.7012 c -1.1029,0.7527 -2.9195,0.6641 -4.0723,-0.1992 l -28.1777,-21.0996 -0.2285,4.1133 28.4062,21.2734 c 1.1528,0.8633 2.9694,0.95 4.0723,0.1973 l 50.3711,-34.3848 c 1.1006,-0.7556 1.0633,-2.0527 -0.09,-2.916 z"
           style="opacity:1;fill:#0070c0;fill-opacity:1;stroke:none;stroke-width:3.02777362;stroke-linecap:round;stroke-linejoin:round;stroke-miterlimit:4;stroke-dasharray:none;stroke-dashoffset:0;stroke-opacity:1" />
        <g
           inkscape:export-ydpi="120"
           inkscape:export-xdpi="120"
           transform="matrix(-1,0,0,1,1103.99,-593.5533)"
           id="g7819">
          <path
             inkscape:connector-curvature="0"
             style="opacity:1;fill:#002060;fill-opacity:1;fill-rule:evenodd;stroke:none;stroke-width:0.99999994px;stroke-linecap:butt;stroke-linejoin:miter;stroke-opacity:1"
             d="m 1173.75,539.66211 -0.059,0.0117 c 6.895,4.8632 4.5454,8.2715 -2.0078,12.05078 L 842.7207,741.43945 c -21.93131,12.64781 -43.70441,16.27955 -55.84179,9.25 L 652.30664,672.75 629.30469,659.46875 c -1.32042,-0.76235 -2.13073,-1.69085 -2.45899,-2.69922 -0.21379,17.61148 -2.02509,25.90874 16.28907,36.48242 l 140.08007,80.875 c 20.75834,11.98485 41.91248,3.31961 56.4375,-5.0664 L 1171.875,577.25195 c 16.0712,-9.2787 17.2042,-27.26969 1.875,-37.58984 z"
             id="path7767"
             transform="scale(0.26458333)" />
          <path
             inkscape:connector-curvature="0"
             style="opacity:1;fill:#0070c0;fill-opacity:1;fill-rule:evenodd;stroke:none;stroke-width:0.99999994px;stroke-linecap:butt;stroke-linejoin:miter;stroke-opacity:1"
             d="m 1173.75,539.66211 -0.059,0.0117 c 2.0092,1.41712 3.2134,2.7086 3.7774,3.92383 0.1773,-0.16525 0.3509,-0.33025 0.5058,-0.4961 -1.2361,-1.21519 -2.637,-2.37062 -4.2246,-3.43945 z m 10.6309,21.04687 c -2.0035,4.33953 -5.6568,8.32205 -10.9278,11.36524 L 841.23047,763.88281 c -14.52503,8.38602 -35.67916,17.05125 -56.4375,5.06641 l -140.08008,-80.875 c -15.62529,-9.02127 -16.59722,-16.40505 -16.41406,-29.31055 -0.73016,-0.60493 -1.21986,-1.27759 -1.45313,-1.99414 -0.21379,17.61148 -2.02509,25.90874 16.28907,36.48242 l 140.08007,80.875 c 20.75834,11.98485 41.91248,3.31961 56.4375,-5.0664 L 1171.875,577.25195 c 7.316,-4.22386 11.5249,-10.25375 12.5059,-16.54297 z"
             transform="scale(0.26458333)"
             id="path7769" />
          <path
             inkscape:connector-curvature="0"
             style="opacity:1;fill:#0070c0;fill-opacity:1;fill-rule:evenodd;stroke:none;stroke-width:0.99999994px;stroke-linecap:butt;stroke-linejoin:miter;stroke-opacity:1"
             d="m 1173.75,539.66211 -0.059,0.0117 c 6.895,4.8632 4.5454,8.2715 -2.0078,12.05078 L 842.7207,741.43945 c -21.93131,12.64781 -43.70441,16.27955 -55.84179,9.25 L 652.30664,672.75 629.30469,659.46875 c -1.32042,-0.76235 -2.13073,-1.69085 -2.45899,-2.69922 -0.0195,1.61095 -0.0524,3.06534 -0.082,4.5293 0.43204,0.56743 1.02278,1.09867 1.82617,1.5625 l 23.00196,13.28125 134.57226,77.93945 c 12.13739,7.02954 33.91049,3.39781 55.8418,-9.25 L 1174.0938,552.97461 c 4.3048,-2.48264 6.7735,-4.80825 6.0214,-7.48828 -1.6588,-2.10715 -3.7703,-4.07722 -6.3652,-5.82422 z"
             transform="scale(0.26458333)"
             id="path7771" />
          <ellipse
             style="opacity:1;fill:#0070c0;fill-opacity:1;stroke:none;stroke-width:0.53722727;stroke-linecap:round;stroke-linejoin:round;stroke-miterlimit:4;stroke-dasharray:none;stroke-dashoffset:0;stroke-opacity:1"
             id="ellipse7773"
             cx="101.27374"
             cy="270.9433"
             rx="0.54822934"
             ry="0.66319191"
             transform="matrix(0.88060464,-0.47385174,0.41573065,0.90948778,0,0)" />
          <ellipse
             transform="matrix(0.88060464,-0.47385174,0.41573065,0.90948778,0,0)"
             ry="0.66319191"
             rx="0.54822934"
             cy="269.32419"
             cx="100.16027"
             id="ellipse7775"
             style="opacity:1;fill:#0070c0;fill-opacity:1;stroke:none;stroke-width:0.53722727;stroke-linecap:round;stroke-linejoin:round;stroke-miterlimit:4;stroke-dasharray:none;stroke-dashoffset:0;stroke-opacity:1" />
          <ellipse
             style="opacity:1;fill:#0070c0;fill-opacity:1;stroke:none;stroke-width:0.53722727;stroke-linecap:round;stroke-linejoin:round;stroke-miterlimit:4;stroke-dasharray:none;stroke-dashoffset:0;stroke-opacity:1"
             id="ellipse7777"
             cx="99.140915"
             cy="267.67618"
             rx="0.54822934"
             ry="0.66319191"
             transform="matrix(0.88060464,-0.47385174,0.41573065,0.90948778,0,0)" />
          <ellipse
             transform="matrix(0.88060464,-0.47385174,0.41573065,0.90948778,0,0)"
             ry="0.66319191"
             rx="0.54822934"
             cy="266.11801"
             cx="97.945015"
             id="ellipse7779"
             style="opacity:1;fill:#0070c0;fill-opacity:1;stroke:none;stroke-width:0.53722727;stroke-linecap:round;stroke-linejoin:round;stroke-miterlimit:4;stroke-dasharray:none;stroke-dashoffset:0;stroke-opacity:1" />
          <ellipse
             style="opacity:1;fill:#0070c0;fill-opacity:1;stroke:none;stroke-width:0.53722727;stroke-linecap:round;stroke-linejoin:round;stroke-miterlimit:4;stroke-dasharray:none;stroke-dashoffset:0;stroke-opacity:1"
             id="ellipse7781"
             cx="96.913971"
             cy="264.43796"
             rx="0.54822934"
             ry="0.66319191"
             transform="matrix(0.88060464,-0.47385174,0.41573065,0.90948778,0,0)" />
          <ellipse
             transform="matrix(0.88060464,-0.47385174,0.41573065,0.90948778,0,0)"
             ry="0.42463207"
             rx="0.35102323"
             cy="259.49884"
             cx="93.665817"
             id="ellipse7783"
             style="opacity:1;fill:#0070c0;fill-opacity:1;stroke:none;stroke-width:0.34397876;stroke-linecap:round;stroke-linejoin:round;stroke-miterlimit:4;stroke-dasharray:none;stroke-dashoffset:0;stroke-opacity:1" />
          <ellipse
             style="opacity:1;fill:#0070c0;fill-opacity:1;stroke:none;stroke-width:0.34397876;stroke-linecap:round;stroke-linejoin:round;stroke-miterlimit:4;stroke-dasharray:none;stroke-dashoffset:0;stroke-opacity:1"
             id="ellipse7785"
             cx="88.357536"
             cy="251.73741"
             rx="0.35102323"
             ry="0.42463207"
             transform="matrix(0.88060464,-0.47385174,0.41573065,0.90948778,0,0)" />
          <ellipse
             transform="matrix(0.88060464,-0.47385174,0.41573065,0.90948778,0,0)"
             ry="0.4952161"
             rx="0.4093717"
             cy="242.43758"
             cx="81.936607"
             id="ellipse7787"
             style="opacity:1;fill:#0070c0;fill-opacity:1;stroke:none;stroke-width:0.40115628;stroke-linecap:round;stroke-linejoin:round;stroke-miterlimit:4;stroke-dasharray:none;stroke-dashoffset:0;stroke-opacity:1" />
          <path
             inkscape:connector-curvature="0"
             id="path7789"
             d="m 184.4043,187.37891 a 0.68256825,0.68256825 0 0 0 -0.33594,1.26757 l 4.38476,2.7461 a 0.68256825,0.68256825 0 1 0 0.72461,-1.15625 l -4.38476,-2.74805 a 0.68256825,0.68256825 0 0 0 -0.38867,-0.10937 z"
             style="color:#000000;font-style:normal;font-variant:normal;font-weight:normal;font-stretch:normal;font-size:medium;line-height:normal;font-family:sans-serif;font-variant-ligatures:normal;font-variant-position:normal;font-variant-caps:normal;font-variant-numeric:normal;font-variant-alternates:normal;font-feature-settings:normal;text-indent:0;text-align:start;text-decoration:none;text-decoration-line:none;text-decoration-style:solid;text-decoration-color:#000000;letter-spacing:normal;word-spacing:normal;text-transform:none;writing-mode:lr-tb;direction:ltr;text-orientation:mixed;dominant-baseline:auto;baseline-shift:baseline;text-anchor:start;white-space:normal;shape-padding:0;clip-rule:nonzero;display:inline;overflow:visible;visibility:visible;opacity:1;isolation:auto;mix-blend-mode:normal;color-interpolation:sRGB;color-interpolation-filters:linearRGB;solid-color:#000000;solid-opacity:1;vector-effect:none;fill:#0070c0;fill-opacity:1;fill-rule:evenodd;stroke:none;stroke-width:1.36500001;stroke-linecap:round;stroke-linejoin:miter;stroke-miterlimit:4;stroke-dasharray:none;stroke-dashoffset:0;stroke-opacity:1;color-rendering:auto;image-rendering:auto;shape-rendering:auto;text-rendering:auto;enable-background:accumulate" />
          <path
             inkscape:connector-curvature="0"
             id="path7791"
             d="m 184.49219,187.41016 a 0.58255823,0.58255823 0 0 0 -0.28711,1.08007 l 4.38476,2.74805 a 0.58310198,0.58310198 0 1 0 0.61914,-0.98828 l -4.38476,-2.74805 a 0.58255823,0.58255823 0 0 0 -0.33203,-0.0918 z"
             style="color:#000000;font-style:normal;font-variant:normal;font-weight:normal;font-stretch:normal;font-size:medium;line-height:normal;font-family:sans-serif;font-variant-ligatures:normal;font-variant-position:normal;font-variant-caps:normal;font-variant-numeric:normal;font-variant-alternates:normal;font-feature-settings:normal;text-indent:0;text-align:start;text-decoration:none;text-decoration-line:none;text-decoration-style:solid;text-decoration-color:#000000;letter-spacing:normal;word-spacing:normal;text-transform:none;writing-mode:lr-tb;direction:ltr;text-orientation:mixed;dominant-baseline:auto;baseline-shift:baseline;text-anchor:start;white-space:normal;shape-padding:0;clip-rule:nonzero;display:inline;overflow:visible;visibility:visible;opacity:1;isolation:auto;mix-blend-mode:normal;color-interpolation:sRGB;color-interpolation-filters:linearRGB;solid-color:#000000;solid-opacity:1;vector-effect:none;fill:#002060;fill-opacity:1;fill-rule:evenodd;stroke:none;stroke-width:1.16499996;stroke-linecap:round;stroke-linejoin:miter;stroke-miterlimit:4;stroke-dasharray:none;stroke-dashoffset:0;stroke-opacity:1;color-rendering:auto;image-rendering:auto;shape-rendering:auto;text-rendering:auto;enable-background:accumulate" />
          <path
             style="color:#000000;font-style:normal;font-variant:normal;font-weight:normal;font-stretch:normal;font-size:medium;line-height:normal;font-family:sans-serif;font-variant-ligatures:normal;font-variant-position:normal;font-variant-caps:normal;font-variant-numeric:normal;font-variant-alternates:normal;font-feature-settings:normal;text-indent:0;text-align:start;text-decoration:none;text-decoration-line:none;text-decoration-style:solid;text-decoration-color:#000000;letter-spacing:normal;word-spacing:normal;text-transform:none;writing-mode:lr-tb;direction:ltr;text-orientation:mixed;dominant-baseline:auto;baseline-shift:baseline;text-anchor:start;white-space:normal;shape-padding:0;clip-rule:nonzero;display:inline;overflow:visible;visibility:visible;opacity:1;isolation:auto;mix-blend-mode:normal;color-interpolation:sRGB;color-interpolation-filters:linearRGB;solid-color:#000000;solid-opacity:1;vector-effect:none;fill:#0070c0;fill-opacity:1;fill-rule:evenodd;stroke:none;stroke-width:0.90484935;stroke-linecap:round;stroke-linejoin:miter;stroke-miterlimit:4;stroke-dasharray:none;stroke-dashoffset:0;stroke-opacity:1;color-rendering:auto;image-rendering:auto;shape-rendering:auto;text-rendering:auto;enable-background:accumulate"
             d="m 283.08473,163.9502 a 0.45246991,0.45246991 0 0 0 -0.0465,0.001 0.45246991,0.45246991 0 0 0 -0.19997,0.0656 l -6.77429,4.00441 a 0.45246991,0.45246991 0 0 0 0.26099,0.84646 0.44462361,0.44462361 0 0 1 0.007,-0.77567 l 6.65644,-3.93464 a 0.44462361,0.44462361 0 0 1 0.19688,-0.0646 0.44462361,0.44462361 0 0 1 0.27027,0.0667 0.45246991,0.45246991 0 0 0 -0.37053,-0.20929 z"
             id="path7793"
             inkscape:connector-curvature="0" />
          <path
             id="path7795"
             d="m 292.5628,158.44326 a 0.45246991,0.45246991 0 0 0 -0.0465,0.001 0.45246991,0.45246991 0 0 0 -0.19997,0.0656 l -6.77428,4.00441 a 0.45246991,0.45246991 0 0 0 0.26098,0.84646 0.44462361,0.44462361 0 0 1 0.007,-0.77567 l 6.65644,-3.93464 a 0.44462361,0.44462361 0 0 1 0.19688,-0.0646 0.44462361,0.44462361 0 0 1 0.27027,0.0667 0.45246991,0.45246991 0 0 0 -0.37052,-0.20929 z"
             style="color:#000000;font-style:normal;font-variant:normal;font-weight:normal;font-stretch:normal;font-size:medium;line-height:normal;font-family:sans-serif;font-variant-ligatures:normal;font-variant-position:normal;font-variant-caps:normal;font-variant-numeric:normal;font-variant-alternates:normal;font-feature-settings:normal;text-indent:0;text-align:start;text-decoration:none;text-decoration-line:none;text-decoration-style:solid;text-decoration-color:#000000;letter-spacing:normal;word-spacing:normal;text-transform:none;writing-mode:lr-tb;direction:ltr;text-orientation:mixed;dominant-baseline:auto;baseline-shift:baseline;text-anchor:start;white-space:normal;shape-padding:0;clip-rule:nonzero;display:inline;overflow:visible;visibility:visible;opacity:1;isolation:auto;mix-blend-mode:normal;color-interpolation:sRGB;color-interpolation-filters:linearRGB;solid-color:#000000;solid-opacity:1;vector-effect:none;fill:#0070c0;fill-opacity:1;fill-rule:evenodd;stroke:none;stroke-width:0.90484935;stroke-linecap:round;stroke-linejoin:miter;stroke-miterlimit:4;stroke-dasharray:none;stroke-dashoffset:0;stroke-opacity:1;color-rendering:auto;image-rendering:auto;shape-rendering:auto;text-rendering:auto;enable-background:accumulate"
             inkscape:connector-curvature="0" />
          <path
             inkscape:connector-curvature="0"
             style="opacity:1;fill:#ffffff;fill-opacity:1;fill-rule:evenodd;stroke:none;stroke-width:0.99999994px;stroke-linecap:butt;stroke-linejoin:miter;stroke-opacity:1"
             d="m 1000.3242,444.15625 c -10.21244,0.0744 -20.43457,4.55007 -28.89647,9.43555 L 631.25781,649.98828 c -5.24307,3.02708 -6.11678,7.07657 -1.95312,9.48047 l 23.00195,13.28125 134.57227,77.93945 c 10.09667,5.84765 26.86501,4.29452 44.84179,-3.66601 4.49077,6.65724 4.84898,13.53494 2.57813,20.55273 2.42015,-1.18505 4.73213,-2.4243 6.88476,-3.66601 2.42223,-8.63905 -0.063,-14.46037 -3.47851,-19.75 1.66886,-0.86003 3.34069,-1.75477 5.01562,-2.72071 L 1155.248,561.20312 c 5.5011,5.44288 4.1139,12.60801 2.834,19.7461 l 8.2149,-4.74414 c 0.8912,-7.30252 -0.6315,-13.54781 -4.5723,-18.73633 l 9.959,-5.74414 c 7.2711,-4.19324 9.3817,-7.92662 -0.5859,-13.70117 l -154.9864,-89.78906 c -5.0908,-2.94928 -10.4377,-4.11709 -15.7871,-4.07813 z"
             transform="scale(0.26458333)"
             id="path7797" />
          <path
             style="opacity:1;fill:#002060;fill-opacity:1;fill-rule:evenodd;stroke:none;stroke-width:0.26458332px;stroke-linecap:butt;stroke-linejoin:miter;stroke-opacity:1"
             d="m 252.67708,124.54836 44.65122,25.77939 -72.29748,41.74097 -44.73958,-25.83041 z"
             id="path7799"
             inkscape:connector-curvature="0" />
          <path
             inkscape:connector-curvature="0"
             id="path7801"
             d="m 277.80273,130.96094 a 0.48254824,0.48254824 0 0 0 -0.21093,0.90234 l 6.61523,3.87305 a 0.48254824,0.48254824 0 1 0 0.48828,-0.83203 l -6.61523,-3.875 a 0.48254824,0.48254824 0 0 0 -0.27735,-0.0684 z"
             style="color:#000000;font-style:normal;font-variant:normal;font-weight:normal;font-stretch:normal;font-size:medium;line-height:normal;font-family:sans-serif;font-variant-ligatures:normal;font-variant-position:normal;font-variant-caps:normal;font-variant-numeric:normal;font-variant-alternates:normal;font-feature-settings:normal;text-indent:0;text-align:start;text-decoration:none;text-decoration-line:none;text-decoration-style:solid;text-decoration-color:#000000;letter-spacing:normal;word-spacing:normal;text-transform:none;writing-mode:lr-tb;direction:ltr;text-orientation:mixed;dominant-baseline:auto;baseline-shift:baseline;text-anchor:start;white-space:normal;shape-padding:0;clip-rule:nonzero;display:inline;overflow:visible;visibility:visible;opacity:1;isolation:auto;mix-blend-mode:normal;color-interpolation:sRGB;color-interpolation-filters:linearRGB;solid-color:#000000;solid-opacity:1;vector-effect:none;fill:#002060;fill-opacity:1;fill-rule:evenodd;stroke:none;stroke-width:0.96499997;stroke-linecap:round;stroke-linejoin:miter;stroke-miterlimit:4;stroke-dasharray:none;stroke-dashoffset:0;stroke-opacity:1;color-rendering:auto;image-rendering:auto;shape-rendering:auto;text-rendering:auto;enable-background:accumulate" />
          <ellipse
             style="opacity:1;fill:#002060;fill-opacity:1;stroke:none;stroke-width:1.19077086;stroke-linecap:round;stroke-linejoin:round;stroke-miterlimit:4;stroke-dasharray:none;stroke-dashoffset:0;stroke-opacity:1"
             id="ellipse7803"
             cx="302.88046"
             cy="-17.737934"
             rx="0.79340082"
             ry="0.73057044"
             transform="matrix(0.87797888,0.47869937,-0.51082308,0.85968586,0,0)" />
          <ellipse
             transform="matrix(0.87797888,0.47869937,-0.51082308,0.85968586,0,0)"
             ry="0.64563584"
             rx="0.70116162"
             cy="-21.967863"
             cx="312.60553"
             id="ellipse7805"
             style="opacity:1;fill:#002060;fill-opacity:1;stroke:none;stroke-width:1.05233419;stroke-linecap:round;stroke-linejoin:round;stroke-miterlimit:4;stroke-dasharray:none;stroke-dashoffset:0;stroke-opacity:1" />
          <ellipse
             style="opacity:1;fill:none;fill-opacity:1;stroke:#002060;stroke-width:0.55903727;stroke-linecap:round;stroke-linejoin:round;stroke-miterlimit:4;stroke-dasharray:none;stroke-dashoffset:0;stroke-opacity:1"
             id="ellipse7807"
             cx="176.07954"
             cy="198.44026"
             rx="5.1794987"
             ry="3.2930391"
             transform="matrix(0.99662815,-0.08205079,0.09831748,0.9951551,0,0)" />
          <g
             id="g7817"
             transform="rotate(5.2219428,299.25322,155.2281)">
            <path
               inkscape:connector-curvature="0"
               id="path7811"
               d="m 300.90514,153.27344 a 0.73257327,0.73257327 0 0 0 -0.38672,0.14258 l -3.39258,2.43945 a 0.73257327,0.73257327 0 1 0 0.85547,1.18945 l 3.39257,-2.43945 a 0.73257327,0.73257327 0 0 0 -0.46874,-1.33203 z"
               style="color:#000000;font-style:normal;font-variant:normal;font-weight:normal;font-stretch:normal;font-size:medium;line-height:normal;font-family:sans-serif;font-variant-ligatures:normal;font-variant-position:normal;font-variant-caps:normal;font-variant-numeric:normal;font-variant-alternates:normal;font-feature-settings:normal;text-indent:0;text-align:start;text-decoration:none;text-decoration-line:none;text-decoration-style:solid;text-decoration-color:#000000;letter-spacing:normal;word-spacing:normal;text-transform:none;writing-mode:lr-tb;direction:ltr;text-orientation:mixed;dominant-baseline:auto;baseline-shift:baseline;text-anchor:start;white-space:normal;shape-padding:0;clip-rule:nonzero;display:inline;overflow:visible;visibility:visible;opacity:1;isolation:auto;mix-blend-mode:normal;color-interpolation:sRGB;color-interpolation-filters:linearRGB;solid-color:#000000;solid-opacity:1;vector-effect:none;fill:#0070c0;fill-opacity:1;fill-rule:evenodd;stroke:none;stroke-width:1.46500003;stroke-linecap:round;stroke-linejoin:miter;stroke-miterlimit:4;stroke-dasharray:none;stroke-dashoffset:0;stroke-opacity:1;color-rendering:auto;image-rendering:auto;shape-rendering:auto;text-rendering:auto;enable-background:accumulate" />
            <path
               sodipodi:nodetypes="cccccc"
               style="color:#000000;font-style:normal;font-variant:normal;font-weight:normal;font-stretch:normal;font-size:medium;line-height:normal;font-family:sans-serif;font-variant-ligatures:normal;font-variant-position:normal;font-variant-caps:normal;font-variant-numeric:normal;font-variant-alternates:normal;font-feature-settings:normal;text-indent:0;text-align:start;text-decoration:none;text-decoration-line:none;text-decoration-style:solid;text-decoration-color:#000000;letter-spacing:normal;word-spacing:normal;text-transform:none;writing-mode:lr-tb;direction:ltr;text-orientation:mixed;dominant-baseline:auto;baseline-shift:baseline;text-anchor:start;white-space:normal;shape-padding:0;clip-rule:nonzero;display:inline;overflow:visible;visibility:visible;opacity:1;isolation:auto;mix-blend-mode:normal;color-interpolation:sRGB;color-interpolation-filters:linearRGB;solid-color:#000000;solid-opacity:1;vector-effect:none;fill:#0070c0;fill-opacity:1;fill-rule:evenodd;stroke:none;stroke-width:0.82815689;stroke-linecap:round;stroke-linejoin:miter;stroke-miterlimit:4;stroke-dasharray:none;stroke-dashoffset:0;stroke-opacity:1;color-rendering:auto;image-rendering:auto;shape-rendering:auto;text-rendering:auto;enable-background:accumulate"
               d="m 300.92203,153.61366 c -0.0791,0.005 -0.15495,0.0334 -0.21861,0.0806 l -3.02865,2.16411 c -0.45006,0.32211 0.0351,0.99659 0.4836,0.67239 l 3.02864,-2.16411 c 0.34478,-0.24009 0.15418,-0.78173 -0.26498,-0.75299 z"
               id="path7813"
               inkscape:connector-curvature="0" />
            <path
               inkscape:connector-curvature="0"
               id="path7815"
               d="m 300.92205,153.61388 c -0.0791,0.005 -0.15494,0.0334 -0.2186,0.0806 l -3.02874,2.16369 c -0.2749,0.19675 -0.19989,0.52413 0.002,0.67593 -0.062,-0.16369 -0.033,-0.35967 0.15761,-0.49609 l 3.17915,-2.2717 c 0.0538,-0.0399 0.11692,-0.0627 0.18241,-0.0744 -0.0726,-0.054 -0.16473,-0.0855 -0.27337,-0.078 z"
               style="color:#000000;font-style:normal;font-variant:normal;font-weight:normal;font-stretch:normal;font-size:medium;line-height:normal;font-family:sans-serif;font-variant-ligatures:normal;font-variant-position:normal;font-variant-caps:normal;font-variant-numeric:normal;font-variant-alternates:normal;font-feature-settings:normal;text-indent:0;text-align:start;text-decoration:none;text-decoration-line:none;text-decoration-style:solid;text-decoration-color:#000000;letter-spacing:normal;word-spacing:normal;text-transform:none;writing-mode:lr-tb;direction:ltr;text-orientation:mixed;dominant-baseline:auto;baseline-shift:baseline;text-anchor:start;white-space:normal;shape-padding:0;clip-rule:nonzero;display:inline;overflow:visible;visibility:visible;opacity:1;isolation:auto;mix-blend-mode:normal;color-interpolation:sRGB;color-interpolation-filters:linearRGB;solid-color:#000000;solid-opacity:1;vector-effect:none;fill:#002060;fill-opacity:1;fill-rule:evenodd;stroke:none;stroke-width:0.82815689;stroke-linecap:round;stroke-linejoin:miter;stroke-miterlimit:4;stroke-dasharray:none;stroke-dashoffset:0;stroke-opacity:1;color-rendering:auto;image-rendering:auto;shape-rendering:auto;text-rendering:auto;enable-background:accumulate" />
          </g>
        </g>
        <path
           id="rect6274-6"
           d="m 824.17358,-405.19827 -0.2612,4.7029 7.516,5.62815 c 0.305,0.22841 0.7853,0.25176 1.0771,0.0526 l 13.3275,-9.09802 c 0.2912,-0.19991 0.2811,-0.54308 -0.024,-0.77151 l -10.1262,-7.58271 c -0.3051,-0.22844 -0.7853,-0.25211 -1.0771,-0.053 z m 7.3421,-1.94507 1.6601,-1.13373 1.6039,1.20108 -1.66,1.13372 z m -0.3812,0.26468 1.6006,1.19855 -1.6449,1.12322 a 2.4204548,1.7160632 7.4914288 0 1 0.044,-2.32151 z m 2.4377,-1.66411 a 2.4204548,1.7160632 7.4914288 0 1 3.2456,0.0756 l -1.6448,1.12323 z m -1.8479,4.35803 5.576,-3.80644 2.6212,1.96276 -5.5761,3.80647 z m 5.1535,1.05641 1.66,-1.13372 1.604,1.20109 -1.6601,1.13373 z m -1.9575,1.43934 1.5116,-1.03119 1.5291,1.14501 a 2.1755901,1.5473213 6.2652577 0 1 -0.2478,0.20773 2.1755901,1.5473213 6.2652577 0 1 -1.901,0.34648 z m 4.2165,-2.87834 1.5117,-1.0312 0.8915,0.66757 a 2.1755901,1.5473213 6.2652577 0 1 -0.572,1.34174 2.1755901,1.5473213 6.2652577 0 1 -0.3018,0.16734 z"
           style="opacity:1;fill:#002060;fill-opacity:1;stroke:none;stroke-width:0.80109847;stroke-linecap:round;stroke-linejoin:round;stroke-miterlimit:4;stroke-dasharray:none;stroke-dashoffset:0;stroke-opacity:1"
           inkscape:connector-curvature="0" />
        <g
           id="g7765"
           transform="translate(582.63733,-153.63864)">
          <g
             id="g7747">
            <path
               style="opacity:1;fill:#ffffff;fill-opacity:1;fill-rule:evenodd;stroke:none;stroke-width:0.26458332px;stroke-linecap:butt;stroke-linejoin:miter;stroke-opacity:1"
               d="m 278.63145,-271.86819 16.3649,-9.44832 17.5783,10.65103 -16.2366,9.75534 z"
               id="path7398"
               inkscape:connector-curvature="0" />
            <path
               style="opacity:1;fill:#ffffff;fill-opacity:1;fill-rule:evenodd;stroke:none;stroke-width:0.26458332px;stroke-linecap:butt;stroke-linejoin:miter;stroke-opacity:1"
               d="m 269.41065,-303.53963 20.6465,-12.62848 17.573,10.95805 11.2253,-6.94901 26.5265,16.57071 -24.3883,14.83346 -21.7825,-13.36348 -7.3499,4.54358 z"
               id="path7402"
               inkscape:connector-curvature="0" />
          </g>
          <g
             id="g7743">
            <g
               id="g7485"
               transform="translate(289.71955,-461.45351)">
              <path
                 id="path7441"
                 transform="scale(0.26458333)"
                 d="m 11.919922,586.0918 -3.2343751,2.13867 -7.2578125,-1.87109 -13.2578124,8.39257 2.3691405,5.48438 -7.5039065,4.96289 15.1796878,9.86523 30.8027342,-18.57226 z m -27.503906,12.95508 -4.376954,2.52734 2.15625,1.82226 c 0,0 3.558991,-3.79982 3.853516,-3.87109 -0.275877,-0.007 -1.632812,-0.47851 -1.632812,-0.47851 z"
                 style="opacity:1;fill:#0070c0;fill-opacity:1;fill-rule:evenodd;stroke:none;stroke-width:0.99999994px;stroke-linecap:butt;stroke-linejoin:miter;stroke-opacity:1"
                 inkscape:connector-curvature="0" />
              <ellipse
                 transform="rotate(3.6744675)"
                 ry="1.6595517"
                 rx="2.6222098"
                 cy="157.83293"
                 cx="11.804859"
                 id="path7446"
                 style="opacity:1;fill:#ffffff;fill-opacity:1;stroke:none;stroke-width:2.59774446;stroke-linecap:round;stroke-linejoin:round;stroke-miterlimit:4;stroke-dasharray:none;stroke-dashoffset:0;stroke-opacity:1" />
              <path
                 transform="scale(0.26458333)"
                 id="ellipse7448"
                 d="m 1.5527344,594.31641 a 7.4970268,4.7447398 3.6744675 0 0 -2.7402344,3.36914 7.4970268,4.7447398 3.6744675 0 0 7.1777344,5.21679 7.4970268,4.7447398 3.6744675 0 0 7.7851566,-4.25586 7.4970268,4.7447398 3.6744675 0 0 -3.185547,-4.19921 5.0221365,4.6758751 28.956868 0 1 -4.808594,2.76367 5.0221365,4.6758751 28.956868 0 1 -4.2285156,-2.89453 z"
                 style="opacity:1;fill:#0070c0;fill-opacity:1;stroke:none;stroke-width:7.4270792;stroke-linecap:round;stroke-linejoin:round;stroke-miterlimit:4;stroke-dasharray:none;stroke-dashoffset:0;stroke-opacity:1"
                 inkscape:connector-curvature="0" />
            </g>
            <g
               id="g7493"
               transform="translate(290.00865,-461.55947)">
              <path
                 id="path7458"
                 transform="scale(0.26458333)"
                 d="m 21.072266,704.75195 -4.03125,2.63086 2.423828,1.5 -1.9375,1.66407 -2.714844,-1.70899 -9.2285156,6.02344 2.1699218,1.34375 -1.9394531,1.66601 -2.4648437,-1.55273 -3.61718752,2.36133 L 22.767578,733.5918 44.375,719.57422 Z m 3.570312,4.59766 16.429688,10.3125 -18.214844,11.69727 -16.7421876,-10.40235 z"
                 style="opacity:1;fill:#0070c0;fill-opacity:1;fill-rule:evenodd;stroke:none;stroke-width:0.99999994px;stroke-linecap:butt;stroke-linejoin:miter;stroke-opacity:1"
                 inkscape:connector-curvature="0" />
              <path
                 inkscape:connector-curvature="0"
                 id="path7462"
                 d="m 0.17717634,189.04055 0.43703497,-0.3957 1.36425779,0.84455 -0.4606585,0.39569 z"
                 style="opacity:1;fill:#37abc8;fill-opacity:1;fill-rule:evenodd;stroke:none;stroke-width:0.26458332px;stroke-linecap:butt;stroke-linejoin:miter;stroke-opacity:1" />
              <path
                 style="opacity:1;fill:#0070c0;fill-opacity:1;fill-rule:evenodd;stroke:none;stroke-width:0.26458332px;stroke-linecap:butt;stroke-linejoin:miter;stroke-opacity:1"
                 d="m 0.17717634,189.04055 0.43703497,-0.3957 1.36425779,0.84455 -0.4606585,0.39569 z"
                 id="path7464"
                 inkscape:connector-curvature="0" />
              <path
                 inkscape:connector-curvature="0"
                 id="path7469"
                 d="m 3.2758324,187.10285 0.437035,-0.3957 1.3642578,0.84455 -0.4606585,0.39569 z"
                 style="opacity:1;fill:#0070c0;fill-opacity:1;fill-rule:evenodd;stroke:none;stroke-width:0.26458332px;stroke-linecap:butt;stroke-linejoin:miter;stroke-opacity:1" />
              <text
                 transform="matrix(0.60074113,-0.46101589,1.115249,0.80875516,0,0)"
                 id="text7480"
                 y="118.59287"
                 x="-209.41895"
                 style="font-style:normal;font-variant:normal;font-weight:600;font-stretch:normal;font-size:3.48803163px;line-height:2.18001938px;font-family:'Proxima Nova Alt';-inkscape-font-specification:'Proxima Nova Alt Semi-Bold';font-variant-ligatures:normal;font-variant-caps:normal;font-variant-numeric:normal;font-feature-settings:normal;text-align:start;letter-spacing:0px;word-spacing:0px;writing-mode:lr-tb;text-anchor:start;opacity:1;fill:#0070c0;fill-opacity:1;stroke:none;stroke-width:0.0872008px;stroke-linecap:butt;stroke-linejoin:miter;stroke-opacity:1"
                 xml:space="preserve"><tspan
                   style="font-style:normal;font-variant:normal;font-weight:600;font-stretch:normal;font-family:'Proxima Nova Alt';-inkscape-font-specification:'Proxima Nova Alt Semi-Bold';fill:#0070c0;fill-opacity:1;stroke-width:0.0872008px"
                   y="118.59287"
                   x="-209.41895"
                   id="tspan7478"
                   sodipodi:role="line">27</tspan></text>
            </g>
            <path
               style="opacity:1;fill:#0070c0;fill-opacity:1;fill-rule:evenodd;stroke:none;stroke-width:0.26458332px;stroke-linecap:butt;stroke-linejoin:miter;stroke-opacity:1"
               d="m 318.44255,-291.4432 -1.25282,-0.81851 -0.15034,-0.7851 -2.37202,1.43657 c 0,0 -0.31872,-0.95982 -0.21716,-1.11919 0.10385,-0.16294 0.75934,-0.83215 0.80181,-0.80181 -0.41846,-0.25698 -0.61244,-0.28949 -0.85192,-0.36749 -1.79128,-0.18703 -1.89566,-1.11402 -1.31964,-1.5034 0.48616,-0.32864 1.89129,-0.10073 2.52235,1.23612 0.12659,0.26817 0.49949,0.30095 0.80181,0.0501 0.42774,-0.35491 1.05229,-0.24846 1.67044,-0.15034 0.19037,-0.0772 0.35426,-0.12263 0.4176,-0.33409 0.0633,-0.21146 2.8e-4,-0.45436 -0.17868,-0.66733 -0.23132,-0.2753 -0.55097,-0.41265 -0.94051,-0.50197 -2.96441,-0.28852 -3.60931,-1.69677 -3.19053,-2.42213 0.67696,-1.17252 3.73156,-1.07787 4.92779,0.98555 0.24575,0.42391 0.39752,0.83804 0.80181,1.08579 h 1.20271 c 0.14223,-0.4202 0.35422,-0.78854 0.65147,-1.08579 0.30792,-0.30792 -0.0609,-0.6193 -0.22038,-0.67914 -0.72163,-0.27072 -0.59098,-0.1359 -1.1995,-0.28553 -0.60852,-0.14963 -0.76573,-0.70717 -0.65974,-0.96046 0.22027,-0.52643 0.60969,-0.95666 1.76223,-0.34666 0.42353,0.22417 0.72599,0.7889 0.7851,0.90204 0.19809,0.37912 0.71733,0.50954 0.7684,0.41761 0.47086,-0.39991 1.2517,-0.47128 1.82078,-0.43432 0.36673,0.0238 0.73499,0.19192 1.10248,0.3842 l -2.22167,1.36976 2.3219,0.65147 z"
               id="path7456"
               inkscape:connector-curvature="0"
               sodipodi:nodetypes="ccccsccsssczscssccsszssscscccc" />
          </g>
        </g>
      </g>
    </g>
  </g>
</svg>
